<svg width="128" height="128" viewBox="0 0 128 128" fill="none" xmlns="http://www.w3.org/2000/svg">
<rect width="128" height="128" rx="15" fill="white"/>
<path fill-rule="evenodd" clip-rule="evenodd" d="M80.819 44.0208C80.8517 43.9963 80.8875 43.9749 80.9245 43.9577C80.8872 43.9749 80.8519 43.9962 80.819 44.0208ZM90.3851 57.7214C90.6025 57.5475 90.8292 57.3381 91.0548 57.0955C90.8392 57.3065 90.6161 57.5152 90.3851 57.7214Z" fill="#A2C630"/>
<path fill-rule="evenodd" clip-rule="evenodd" d="M80.819 44.0208C80.8517 43.9963 80.8875 43.9749 80.9245 43.9577C80.8872 43.9749 80.8519 43.9962 80.819 44.0208ZM90.3851 57.7214C90.6025 57.5475 90.8292 57.3381 91.0548 57.0955C90.8392 57.3065 90.6161 57.5152 90.3851 57.7214Z" fill="#173784"/>
<path fill-rule="evenodd" clip-rule="evenodd" d="M73.3631 67.1458C73.3528 67.1051 73.3465 67.0651 73.3441 67.0232C73.3465 67.064 73.3526 67.1044 73.3626 67.144C73.3628 67.1446 73.3629 67.1452 73.3631 67.1458ZM60.1884 87.7005L60.147 87.7293L60.1105 87.7652C60.1348 87.7413 60.1604 87.72 60.1884 87.7005ZM52.1196 84.3949C52.1279 84.3871 52.1362 84.3794 52.1445 84.3717C52.1583 84.3589 52.1708 84.3447 52.1819 84.3294C52.1882 84.3207 52.1946 84.312 52.2012 84.3031C52.1756 84.3375 52.151 84.3657 52.1196 84.3949Z" fill="#A2C630"/>
<path fill-rule="evenodd" clip-rule="evenodd" d="M73.3631 67.1458C73.3528 67.1051 73.3465 67.0651 73.3441 67.0232C73.3465 67.064 73.3526 67.1044 73.3626 67.144C73.3628 67.1446 73.3629 67.1452 73.3631 67.1458ZM60.1884 87.7005L60.147 87.7293L60.1105 87.7652C60.1348 87.7413 60.1604 87.72 60.1884 87.7005ZM52.1196 84.3949C52.1279 84.3871 52.1362 84.3794 52.1445 84.3717C52.1583 84.3589 52.1708 84.3447 52.1819 84.3294C52.1882 84.3207 52.1946 84.312 52.2012 84.3031C52.1756 84.3375 52.151 84.3657 52.1196 84.3949Z" fill="#173784"/>
<path fill-rule="evenodd" clip-rule="evenodd" d="M48.2356 56.4857C48.2965 56.4402 48.3476 56.3828 48.3948 56.3231C48.3475 56.3829 48.2967 56.4401 48.2356 56.4857Z" fill="#A2C630"/>
<path fill-rule="evenodd" clip-rule="evenodd" d="M48.2356 56.4857C48.2965 56.4402 48.3476 56.3828 48.3948 56.3231C48.3475 56.3829 48.2967 56.4401 48.2356 56.4857Z" fill="#173784"/>
<path d="M67.1073 57.242C65.5033 58.3319 63.0554 60.9078 63.8732 64.1166C63.8946 64.2007 63.9356 64.2776 63.9895 64.3456C65.5278 66.2869 67.144 71.194 61.8354 76.1406C59.0774 78.2407 53.3362 82.7785 52.2012 84.3031C52.1946 84.312 52.1882 84.3207 52.1819 84.3294C52.1708 84.3447 52.1583 84.3589 52.1445 84.3717C52.1362 84.3794 52.1279 84.3871 52.1196 84.3949C49.4715 86.863 44.4018 93.7947 44.9512 102.158C44.9953 104.054 46.0241 108.738 49.5717 113.966C49.951 114.525 50.8336 114.095 50.7007 113.433C50.0266 110.075 49.6055 105.496 50.839 102.215C50.8534 102.176 50.8636 102.14 50.8708 102.1C51.2607 99.9333 53.6273 94.1405 60.1095 87.7661L60.1105 87.7652L60.147 87.7293L60.1884 87.7005C63.5551 85.3572 70.4504 79.9965 71.4287 77.0616C72.2939 75.1531 74.3233 70.9667 73.3631 67.1458C73.3629 67.1452 73.3628 67.1446 73.3626 67.144C73.3526 67.1044 73.3465 67.064 73.3441 67.0232C73.222 64.9687 71.9415 60.3071 67.7594 57.2579C67.5659 57.1168 67.3054 57.1074 67.1073 57.242Z" fill="#A2C630"/>
<path d="M67.1073 57.242C65.5033 58.3319 63.0554 60.9078 63.8732 64.1166C63.8946 64.2007 63.9356 64.2776 63.9895 64.3456C65.5278 66.2869 67.144 71.194 61.8354 76.1406C59.0774 78.2407 53.3362 82.7785 52.2012 84.3031C52.1946 84.312 52.1882 84.3207 52.1819 84.3294C52.1708 84.3447 52.1583 84.3589 52.1445 84.3717C52.1362 84.3794 52.1279 84.3871 52.1196 84.3949C49.4715 86.863 44.4018 93.7947 44.9512 102.158C44.9953 104.054 46.0241 108.738 49.5717 113.966C49.951 114.525 50.8336 114.095 50.7007 113.433C50.0266 110.075 49.6055 105.496 50.839 102.215C50.8534 102.176 50.8636 102.14 50.8708 102.1C51.2607 99.9333 53.6273 94.1405 60.1095 87.7661L60.1105 87.7652L60.147 87.7293L60.1884 87.7005C63.5551 85.3572 70.4504 79.9965 71.4287 77.0616C72.2939 75.1531 74.3233 70.9667 73.3631 67.1458C73.3629 67.1452 73.3628 67.1446 73.3626 67.144C73.3526 67.1044 73.3465 67.064 73.3441 67.0232C73.222 64.9687 71.9415 60.3071 67.7594 57.2579C67.5659 57.1168 67.3054 57.1074 67.1073 57.242Z" fill="#173784"/>
<path d="M95.3736 64.2449C105.32 54.4213 100.132 43.8815 96.2946 39.8395C97.1599 43.1276 97.2559 51.027 91.0548 57.0955C90.8292 57.3381 90.6025 57.5475 90.3851 57.7214L75.8518 68.3592C75.6393 68.5148 75.5528 68.7875 75.6109 69.0443C76.2519 71.8748 74.801 75.6933 73.5087 78.177C73.2422 78.689 73.7376 79.2955 74.2743 79.0834C76.4344 78.2299 77.7453 77.4154 78.1824 77.0616L95.3736 64.2449Z" fill="#A2C630"/>
<path d="M95.3736 64.2449C105.32 54.4213 100.132 43.8815 96.2946 39.8395C97.1599 43.1276 97.2559 51.027 91.0548 57.0955C90.8292 57.3381 90.6025 57.5475 90.3851 57.7214L75.8518 68.3592C75.6393 68.5148 75.5528 68.7875 75.6109 69.0443C76.2519 71.8748 74.801 75.6933 73.5087 78.177C73.2422 78.689 73.7376 79.2955 74.2743 79.0834C76.4344 78.2299 77.7453 77.4154 78.1824 77.0616L95.3736 64.2449Z" fill="#173784"/>
<path d="M34.6671 85.3502C32.1499 80.377 35.3067 76.1662 37.1998 74.6824L50.5921 64.4501C50.7593 64.3223 50.8484 64.1179 50.8353 63.9079C50.6327 60.6707 51.5894 57.3052 52.4158 55.2214C52.6165 54.7152 52.1345 54.1736 51.6283 54.3744C49.6782 55.1484 48.7119 55.9221 48.3948 56.3231C48.3476 56.3828 48.2965 56.4402 48.2356 56.4857L30.8665 69.4363C30.8421 69.4545 30.8185 69.475 30.7971 69.4967C23.3457 77.0413 25.5117 85.8669 27.5297 89.341C31.5125 96.614 38.6112 98.4422 42.2315 98.4862C42.5838 98.4905 42.8457 98.1794 42.8405 97.8271C42.8082 95.6485 43.6726 92.9896 44.4105 91.2226C44.6109 90.7425 44.1771 90.1976 43.6599 90.2533C38.6576 90.7916 35.6117 87.3102 34.6671 85.3502Z" fill="#A2C630"/>
<path d="M34.6671 85.3502C32.1499 80.377 35.3067 76.1662 37.1998 74.6824L50.5921 64.4501C50.7593 64.3223 50.8484 64.1179 50.8353 63.9079C50.6327 60.6707 51.5894 57.3052 52.4158 55.2214C52.6165 54.7152 52.1345 54.1736 51.6283 54.3744C49.6782 55.1484 48.7119 55.9221 48.3948 56.3231C48.3476 56.3828 48.2965 56.4402 48.2356 56.4857L30.8665 69.4363C30.8421 69.4545 30.8185 69.475 30.7971 69.4967C23.3457 77.0413 25.5117 85.8669 27.5297 89.341C31.5125 96.614 38.6112 98.4422 42.2315 98.4862C42.5838 98.4905 42.8457 98.1794 42.8405 97.8271C42.8082 95.6485 43.6726 92.9896 44.4105 91.2226C44.6109 90.7425 44.1771 90.1976 43.6599 90.2533C38.6576 90.7916 35.6117 87.3102 34.6671 85.3502Z" fill="#173784"/>
<path d="M96.2946 39.8395C87.4534 31.6123 78.7452 35.03 75.4963 37.7673L59.0374 50.0924C59.0099 50.113 58.9833 50.1367 58.9597 50.1617L58.9592 50.1621C49.0464 60.6481 54.4026 70.8667 58.6286 75.0243C58.8384 75.2307 59.1676 75.2466 59.396 75.0614L59.397 75.0605C62.0338 72.9124 62.9964 70.2105 63.1882 68.8719C63.2113 68.711 63.1547 68.5481 63.0523 68.4219L63.0516 68.4211C58.7089 63.0838 62.6086 57.7476 65.1355 55.726L80.819 44.0208C80.8519 43.9962 80.8872 43.9749 80.9245 43.9577L80.9252 43.9573C85.2 41.9757 89.0098 44.015 90.3851 45.2885C94.7751 50.6662 92.9527 55.0549 91.0548 57.0955C97.2559 51.027 97.1599 43.1276 96.2946 39.8395Z" fill="#173784"/>
<path d="M96.2946 39.8395C87.4534 31.6123 78.7452 35.03 75.4963 37.7673L59.0374 50.0924C59.0099 50.113 58.9833 50.1367 58.9597 50.1617L58.9592 50.1621C49.0464 60.6481 54.4026 70.8667 58.6286 75.0243C58.8384 75.2307 59.1676 75.2466 59.396 75.0614L59.397 75.0605C62.0338 72.9124 62.9964 70.2105 63.1882 68.8719C63.2113 68.711 63.1547 68.5481 63.0523 68.4219L63.0516 68.4211C58.7089 63.0838 62.6086 57.7476 65.1355 55.726L80.819 44.0208C80.8519 43.9962 80.8872 43.9749 80.9245 43.9577L80.9252 43.9573C85.2 41.9757 89.0098 44.015 90.3851 45.2885C94.7751 50.6662 92.9527 55.0549 91.0548 57.0955C97.2559 51.027 97.1599 43.1276 96.2946 39.8395Z" fill="#A2C630"/>
<path d="M54.6417 111.431L59.9057 110.448C60.4088 110.354 60.6014 109.702 60.2756 109.308C58.2455 106.848 56.0166 101.689 58.1378 94.5815C58.3222 93.9636 57.6272 93.4994 57.2106 93.9916C54.24 97.5009 51.0838 103.865 53.9709 111.066C54.0774 111.332 54.3603 111.483 54.6417 111.431Z" fill="#173784"/>
<path d="M54.6417 111.431L59.9057 110.448C60.4088 110.354 60.6014 109.702 60.2756 109.308C58.2455 106.848 56.0166 101.689 58.1378 94.5815C58.3222 93.9636 57.6272 93.4994 57.2106 93.9916C54.24 97.5009 51.0838 103.865 53.9709 111.066C54.0774 111.332 54.3603 111.483 54.6417 111.431Z" fill="#A2C630"/>
<path d="M30.1986 25.9142L59.8323 11.9223C60.3718 11.6675 60.997 11.667 61.537 11.9209L91.2984 25.9107C92.855 26.6424 92.8231 28.8676 91.2461 29.5544L86.1623 31.7683C85.9104 31.878 85.6386 31.9346 85.3638 31.9346H83.0592C82.495 31.9346 81.9617 31.6916 81.5598 31.2956C75.3957 25.2229 64.3545 24.062 59.4563 24.2599C48.0469 24.9251 41.9207 28.763 39.4256 31.5191C38.7263 32.2916 37.61 32.7003 36.6481 32.2995L36.5155 32.2442C35.1981 31.6953 33.7463 32.6632 33.7463 34.0904V37.4999C33.7463 38.1912 34.1516 38.7935 34.5932 39.3254C35.3232 40.2047 35.1373 41.1684 34.7206 41.904C34.3867 42.4934 34.1258 43.1581 34.246 43.8248L35.317 49.764C35.5382 50.9908 34.5954 52.1189 33.3488 52.1189H32.2251C30.9785 52.1189 30.0356 50.9908 30.2568 49.764L31.345 43.7299C31.4557 43.116 31.2437 42.5032 30.9241 41.9676C30.2759 40.8817 30.4817 40.0028 30.9236 39.3943C31.3595 38.7942 31.8276 38.1474 31.8276 37.4056V31.5532C31.8276 30.7591 31.3578 30.0402 30.6305 29.7214L30.2496 29.5544C28.6778 28.8654 28.6467 26.6469 30.1986 25.9142Z" fill="#173784"/>
<path d="M58.5644 43.2871C52.8071 39.8751 46.9056 39.3973 43.2009 39.7462C41.9781 39.8613 40.8069 38.9444 40.8069 37.7162C40.8069 35.0883 42.0042 32.5492 44.2641 31.2081C54.249 25.2829 64.3314 26.1662 71.4611 28.6347C73.4364 29.3186 73.3901 34.9842 71.6707 36.173C68.5423 38.3362 64.9838 41.0045 62.23 43.1347C61.1732 43.9521 59.7137 43.9682 58.5644 43.2871Z" fill="#173784"/>
<path d="M30.1986 25.9142L59.8323 11.9223C60.3718 11.6675 60.997 11.667 61.537 11.9209L91.2984 25.9107C92.855 26.6424 92.8231 28.8676 91.2461 29.5544L86.1623 31.7683C85.9104 31.878 85.6386 31.9346 85.3638 31.9346H83.0592C82.495 31.9346 81.9617 31.6916 81.5598 31.2956C75.3957 25.2229 64.3545 24.062 59.4563 24.2599C48.0469 24.9251 41.9207 28.763 39.4256 31.5191C38.7263 32.2916 37.61 32.7003 36.6481 32.2995L36.5155 32.2442C35.1981 31.6953 33.7463 32.6632 33.7463 34.0904V37.4999C33.7463 38.1912 34.1516 38.7935 34.5932 39.3254C35.3232 40.2047 35.1373 41.1684 34.7206 41.904C34.3867 42.4934 34.1258 43.1581 34.246 43.8248L35.317 49.764C35.5382 50.9908 34.5954 52.1189 33.3488 52.1189H32.2251C30.9785 52.1189 30.0356 50.9908 30.2568 49.764L31.345 43.7299C31.4557 43.116 31.2437 42.5032 30.9241 41.9676C30.2759 40.8817 30.4817 40.0028 30.9236 39.3943C31.3595 38.7942 31.8276 38.1474 31.8276 37.4056V31.5532C31.8276 30.7591 31.3578 30.0402 30.6305 29.7214L30.2496 29.5544C28.6778 28.8654 28.6467 26.6469 30.1986 25.9142Z" stroke="#173784"/>
<path d="M58.5644 43.2871C52.8071 39.8751 46.9056 39.3973 43.2009 39.7462C41.9781 39.8613 40.8069 38.9444 40.8069 37.7162C40.8069 35.0883 42.0042 32.5492 44.2641 31.2081C54.249 25.2829 64.3314 26.1662 71.4611 28.6347C73.4364 29.3186 73.3901 34.9842 71.6707 36.173C68.5423 38.3362 64.9838 41.0045 62.23 43.1347C61.1732 43.9521 59.7137 43.9682 58.5644 43.2871Z" stroke="#173784"/>
<path d="M41.392 44.3384C42.6194 46.0752 44.8945 47.0106 46.9701 47.4622C48.6868 47.8357 50.1477 46.2129 49.8563 44.4804C49.6194 43.0712 48.4672 42.3489 47.0409 42.2622C44.8244 42.1274 43.3084 42.1648 42.3095 42.2744C41.1974 42.3964 40.7463 43.4247 41.392 44.3384Z" fill="#A2C630" stroke="#A2C630"/>
</svg>
